<?xml version="1.0" encoding="UTF-8" standalone="no"?>
<!-- Created with Keyshape -->
<svg xmlns="http://www.w3.org/2000/svg" viewBox="0 0 500 240" text-rendering="geometricPrecision" shape-rendering="geometricPrecision" style="white-space: pre;">
    <defs>
        <linearGradient id="Gradient-0" x1="12923" y1="4675.18" x2="12923" y2="4944.04" gradientUnits="userSpaceOnUse">
            <stop offset="0" stop-color="#052f67"/>
            <stop offset="1" stop-color="#2984fb"/>
        </linearGradient>
        <linearGradient id="Gradient-1" x1="12749.8" y1="4917.54" x2="12870.7" y2="4580.21" gradientUnits="userSpaceOnUse">
            <stop offset="0" stop-color="#052f67"/>
            <stop offset="1" stop-color="#2984fb"/>
        </linearGradient>
        <linearGradient id="Gradient-2" x1="56.3335" y1="0" x2="56.3335" y2="240.008" gradientUnits="userSpaceOnUse">
            <stop offset="0" stop-color="#011834"/>
            <stop offset="1" stop-color="#011834" stop-opacity="0"/>
        </linearGradient>
    </defs>
    <style>
@keyframes a0_t { 0% { transform: translate(0.028px,-0.0078px); } 100% { transform: translate(-504.99127px,-0.0078px); } }
@keyframes a1_t { 0% { transform: translate(0.028px,-0.0078px); } 100% { transform: translate(-504.99127px,-0.0078px); } }
@keyframes a2_o { 0% { opacity: 0; } 1.6667% { opacity: 0; } 8.8889% { opacity: 0.8; } 28.8889% { opacity: 1; } 36.6667% { opacity: 0; } 100% { opacity: 0; } }
@keyframes a3_o { 0% { opacity: 0; } 61.6667% { opacity: 0; } 68.8889% { opacity: 0.7; } 80% { opacity: 0.6; } 92.7778% { opacity: 0; } 100% { opacity: 0; } }
    </style>
    <g clip-rule="evenodd" fill-rule="evenodd" stroke-linejoin="round" stroke-miterlimit="2" transform="translate(500.024,90.8248) translate(-499.996,-90.8326)" style="animation: 18s linear infinite both a0_t;">
        <g transform="translate(247.776,90.8326) scale(0.461315,1) translate(-12962,-4389.82)">
            <g transform="translate(12962,4389.82) scale(1.07637,0.496543) translate(-12923,-4733.92)">
                <path d="M12976,4779.08L12976,4772.85L12979.3,4772.85L12979.3,4779.08L12985.3,4779.08C12985.8,4779.08,12986.3,4779.26,12986.6,4779.59C12986.9,4779.92,12987.1,4780.36,12987.1,4780.83L12987.1,4890.7C12987.1,4891.16,12986.9,4891.61,12986.6,4891.93C12986.3,4892.26,12985.8,4892.45,12985.3,4892.45L12979.3,4892.45L12979.3,4916.85L12976,4916.85L12976,4892.45L12969.9,4892.45C12969.4,4892.45,12969,4892.26,12968.6,4891.93C12968.3,4891.61,12968.1,4891.16,12968.1,4890.7L12968.1,4780.83C12968.1,4780.36,12968.3,4779.92,12968.6,4779.59C12969,4779.26,12969.4,4779.08,12969.9,4779.08L12976,4779.08ZM12762.1,4827.47L12768.2,4827.47C12768.7,4827.47,12769.1,4827.66,12769.5,4827.99C12769.8,4828.32,12770,4828.76,12770,4829.22L12770,4891.27C12770,4891.74,12769.8,4892.18,12769.5,4892.51C12769.1,4892.84,12768.7,4893.02,12768.2,4893.02L12762.1,4893.02L12762.1,4903.66L12758.8,4903.66L12758.8,4893.02L12752.7,4893.02C12752.3,4893.02,12751.8,4892.84,12751.5,4892.51C12751.2,4892.18,12751,4891.74,12751,4891.27L12751,4829.22C12751,4828.76,12751.2,4828.32,12751.5,4827.99C12751.8,4827.66,12752.3,4827.47,12752.7,4827.47L12758.8,4827.47L12758.8,4803.66L12762.1,4803.66L12762.1,4827.47ZM12722.6,4757.2L12722.6,4741.67L12725.9,4741.67L12725.9,4757.2L12732,4757.2C12733,4757.2,12733.7,4757.98,12733.7,4758.95L12733.7,4855.01C12733.7,4855.98,12733,4856.76,12732,4856.76L12725.9,4856.76L12725.9,4879.27L12722.6,4879.27L12722.6,4856.76L12716.5,4856.76C12715.5,4856.76,12714.8,4855.98,12714.8,4855.01L12714.8,4758.95C12714.8,4757.98,12715.5,4757.2,12716.5,4757.2L12722.6,4757.2ZM12906.8,4791.03L12912.9,4791.03C12913.3,4791.03,12913.8,4791.22,12914.1,4791.54C12914.4,4791.87,12914.6,4792.32,12914.6,4792.78L12914.6,4846.06C12914.6,4846.52,12914.4,4846.97,12914.1,4847.3C12913.8,4847.62,12913.3,4847.81,12912.9,4847.81L12906.8,4847.81L12906.8,4870.96L12903.5,4870.96L12903.5,4847.81L12897.4,4847.81C12896.9,4847.81,12896.5,4847.62,12896.2,4847.3C12895.8,4846.97,12895.7,4846.52,12895.7,4846.06L12895.7,4792.78C12895.7,4792.32,12895.8,4791.87,12896.2,4791.54C12896.5,4791.22,12896.9,4791.03,12897.4,4791.03L12903.5,4791.03L12903.5,4779.08L12906.8,4779.08L12906.8,4791.03ZM12798.4,4779.48L12804.4,4779.48C12804.9,4779.48,12805.3,4779.66,12805.7,4779.99C12806,4780.32,12806.2,4780.76,12806.2,4781.23L12806.2,4820.47C12806.2,4820.93,12806,4821.38,12805.7,4821.71C12805.3,4822.03,12804.9,4822.22,12804.4,4822.22L12798.4,4822.22L12798.4,4845.89L12795.1,4845.89L12795.1,4822.22L12789,4822.22C12788.5,4822.22,12788.1,4822.03,12787.7,4821.71C12787.4,4821.38,12787.2,4820.93,12787.2,4820.47L12787.2,4781.23C12787.2,4780.76,12787.4,4780.32,12787.7,4779.99C12788.1,4779.66,12788.5,4779.48,12789,4779.48L12795.1,4779.48L12795.1,4769.24L12798.4,4769.24L12798.4,4779.48ZM12939.7,4781.03L12939.7,4772.85L12943,4772.85L12943,4781.03L12949.1,4781.03C12950.1,4781.03,12950.9,4781.81,12950.9,4782.78L12950.9,4818.92C12950.9,4819.89,12950.1,4820.67,12949.1,4820.67L12943,4820.67L12943,4835.76L12939.7,4835.76L12939.7,4820.67L12933.7,4820.67C12932.7,4820.67,12931.9,4819.89,12931.9,4818.92L12931.9,4782.78C12931.9,4781.81,12932.7,4781.03,12933.7,4781.03L12939.7,4781.03ZM13012.4,4651.16L13012.4,4645.24L13015.7,4645.24L13015.7,4651.16L13021.8,4651.16C13022.2,4651.16,13022.7,4651.34,13023,4651.67C13023.3,4652,13023.5,4652.44,13023.5,4652.91L13023.5,4796.27C13023.5,4796.74,13023.3,4797.18,13023,4797.51C13022.7,4797.84,13022.2,4798.02,13021.8,4798.02L13015.7,4798.02L13015.7,4825.84L13012.4,4825.84L13012.4,4798.02L13006.3,4798.02C13005.8,4798.02,13005.4,4797.84,13005.1,4797.51C13004.7,4797.18,13004.5,4796.74,13004.5,4796.27L13004.5,4652.91C13004.5,4652.44,13004.7,4652,13005.1,4651.67C13005.4,4651.34,13005.8,4651.16,13006.3,4651.16L13012.4,4651.16ZM12831.3,4758.73L12831.3,4736.65L12834.6,4736.65L12834.6,4758.73L12840.6,4758.73C12841.1,4758.73,12841.6,4758.92,12841.9,4759.24C12842.2,4759.57,12842.4,4760.02,12842.4,4760.48L12842.4,4773.68C12842.4,4774.14,12842.2,4774.59,12841.9,4774.92C12841.6,4775.24,12841.1,4775.43,12840.6,4775.43L12834.6,4775.43L12834.6,4825.14L12831.3,4825.14L12831.3,4775.43L12825.2,4775.43C12824.7,4775.43,12824.3,4775.24,12823.9,4774.92C12823.6,4774.59,12823.4,4774.14,12823.4,4773.68L12823.4,4760.48C12823.4,4760.02,12823.6,4759.57,12823.9,4759.24C12824.3,4758.92,12824.7,4758.73,12825.2,4758.73L12831.3,4758.73ZM12867.6,4751.68L12867.6,4744.46L12870.9,4744.46L12870.9,4751.68L12877,4751.68C12878,4751.68,12878.8,4752.46,12878.8,4753.43L12878.8,4807.11C12878.8,4808.08,12878,4808.86,12877,4808.86L12870.9,4808.86L12870.9,4819.42L12867.6,4819.42L12867.6,4808.86L12861.5,4808.86C12860.6,4808.86,12859.8,4808.08,12859.8,4807.11L12859.8,4753.43C12859.8,4752.46,12860.6,4751.68,12861.5,4751.68L12867.6,4751.68ZM13193.5,4743.75L13187.4,4743.75C13187,4743.75,13186.5,4743.56,13186.2,4743.23C13185.9,4742.91,13185.7,4742.46,13185.7,4742L13185.7,4694.5C13185.7,4694.03,13185.9,4693.59,13186.2,4693.26C13186.5,4692.93,13187,4692.75,13187.4,4692.75L13202.9,4692.75C13203.4,4692.75,13203.8,4692.93,13204.2,4693.26C13204.5,4693.59,13204.7,4694.03,13204.7,4694.5L13204.7,4742C13204.7,4742.46,13204.5,4742.91,13204.2,4743.23C13203.8,4743.56,13203.4,4743.75,13202.9,4743.75L13196.8,4743.75L13196.8,4784.47L13193.5,4784.47L13193.5,4743.75ZM13051.9,4573.13L13058,4573.13C13058.5,4573.13,13058.9,4573.31,13059.3,4573.64C13059.6,4573.97,13059.8,4574.42,13059.8,4574.88L13059.8,4758.59C13059.8,4759.05,13059.6,4759.5,13059.3,4759.82C13058.9,4760.15,13058.5,4760.34,13058,4760.34L13051.9,4760.34L13051.9,4784.47L13048.6,4784.47L13048.6,4760.34L13042.5,4760.34C13042.1,4760.34,13041.6,4760.15,13041.3,4759.82C13041,4759.5,13040.8,4759.05,13040.8,4758.59L13040.8,4574.88C13040.8,4574.42,13041,4573.97,13041.3,4573.64C13041.6,4573.31,13042.1,4573.13,13042.5,4573.13L13048.6,4573.13L13048.6,4550.99L13051.9,4550.99L13051.9,4573.13ZM13265.9,4624.28L13265.9,4600.99L13269.2,4600.99L13269.2,4624.28L13275.3,4624.28C13275.7,4624.28,13276.2,4624.47,13276.5,4624.79C13276.8,4625.12,13277,4625.57,13277,4626.03L13277,4741.47C13277,4741.93,13276.8,4742.38,13276.5,4742.7C13276.2,4743.03,13275.7,4743.22,13275.3,4743.22L13269.2,4743.22L13269.2,4767.66L13265.9,4767.66L13265.9,4743.22L13259.8,4743.22C13259.3,4743.22,13258.9,4743.03,13258.6,4742.7C13258.2,4742.38,13258,4741.93,13258,4741.47L13258,4626.03C13258,4625.57,13258.2,4625.12,13258.6,4624.79C13258.9,4624.47,13259.3,4624.28,13259.8,4624.28L13265.9,4624.28ZM13121.1,4742.92L13115,4742.92C13114.5,4742.92,13114.1,4742.74,13113.8,4742.41C13113.4,4742.08,13113.2,4741.64,13113.2,4741.17L13113.2,4660.4C13113.2,4659.93,13113.4,4659.49,13113.8,4659.16C13114.1,4658.83,13114.5,4658.65,13115,4658.65L13130.5,4658.65C13130.9,4658.65,13131.4,4658.83,13131.7,4659.16C13132,4659.49,13132.2,4659.93,13132.2,4660.4L13132.2,4741.17C13132.2,4741.64,13132,4742.08,13131.7,4742.41C13131.4,4742.74,13130.9,4742.92,13130.5,4742.92L13124.4,4742.92L13124.4,4767.24L13121.1,4767.24L13121.1,4742.92ZM13084.7,4696.65L13078.6,4696.65C13078.2,4696.65,13077.7,4696.47,13077.4,4696.14C13077.1,4695.81,13076.9,4695.37,13076.9,4694.9L13076.9,4595.26C13076.9,4594.8,13077.1,4594.35,13077.4,4594.02C13077.7,4593.7,13078.2,4593.51,13078.6,4593.51L13094.1,4593.51C13094.6,4593.51,13095,4593.7,13095.3,4594.02C13095.7,4594.35,13095.8,4594.8,13095.8,4595.26L13095.8,4694.9C13095.8,4695.37,13095.7,4695.81,13095.3,4696.14C13095,4696.47,13094.6,4696.65,13094.1,4696.65L13088,4696.65L13088,4718.77L13084.7,4718.77L13084.7,4696.65ZM13233,4692.75L13239,4692.75C13240,4692.75,13240.8,4693.53,13240.8,4694.5L13240.8,4712.61C13240.8,4713.57,13240,4714.36,13239,4714.36L13233,4714.36L13233,4738.8L13229.7,4738.8L13229.7,4714.36L13223.6,4714.36C13222.6,4714.36,13221.8,4713.57,13221.8,4712.61L13221.8,4694.5C13221.8,4693.53,13222.6,4692.75,13223.6,4692.75L13229.7,4692.75L13229.7,4687.45L13233,4687.45L13233,4692.75ZM13157.2,4675.63L13157.2,4653.22L13160.5,4653.22L13160.5,4675.63L13166.6,4675.63C13167,4675.63,13167.5,4675.81,13167.8,4676.14C13168.1,4676.47,13168.3,4676.92,13168.3,4677.38L13168.3,4689.18C13168.3,4689.64,13168.1,4690.09,13167.8,4690.42C13167.5,4690.74,13167,4690.93,13166.6,4690.93L13160.5,4690.93L13160.5,4715.28L13157.2,4715.28L13157.2,4690.93L13151.1,4690.93C13150.6,4690.93,13150.2,4690.74,13149.9,4690.42C13149.5,4690.09,13149.4,4689.64,13149.4,4689.18L13149.4,4677.38C13149.4,4676.92,13149.5,4676.47,13149.9,4676.14C13150.2,4675.81,13150.6,4675.63,13151.1,4675.63L13157.2,4675.63ZM13338.3,4640.86L13338.3,4619.31L13341.6,4619.31L13341.6,4640.86L13347.7,4640.86C13348.2,4640.86,13348.6,4641.04,13348.9,4641.37C13349.3,4641.7,13349.4,4642.15,13349.4,4642.61L13349.4,4655.69C13349.4,4656.15,13349.3,4656.6,13348.9,4656.92C13348.6,4657.25,13348.2,4657.44,13347.7,4657.44L13341.6,4657.44L13341.6,4681.44L13338.3,4681.44L13338.3,4657.44L13332.2,4657.44C13331.8,4657.44,13331.3,4657.25,13331,4656.92C13330.6,4656.6,13330.5,4656.15,13330.5,4655.69L13330.5,4642.61C13330.5,4642.15,13330.6,4641.7,13331,4641.37C13331.3,4641.04,13331.8,4640.86,13332.2,4640.86L13338.3,4640.86ZM13305.6,4640.86L13311.7,4640.86C13312.2,4640.86,13312.6,4641.04,13312.9,4641.37C13313.3,4641.7,13313.4,4642.15,13313.4,4642.61L13313.4,4672.26C13313.4,4672.73,13313.3,4673.17,13312.9,4673.5C13312.6,4673.83,13312.2,4674.01,13311.7,4674.01L13305.6,4674.01L13305.6,4681.44L13302.3,4681.44L13302.3,4674.01L13296.2,4674.01C13295.8,4674.01,13295.3,4673.83,13295,4673.5C13294.7,4673.17,13294.5,4672.73,13294.5,4672.26L13294.5,4642.61C13294.5,4642.15,13294.7,4641.7,13295,4641.37C13295.3,4641.04,13295.8,4640.86,13296.2,4640.86L13302.3,4640.86L13302.3,4619.31L13305.6,4619.31L13305.6,4640.86ZM13378.2,4626.48L13384.3,4626.48C13385.2,4626.48,13386,4627.26,13386,4628.23L13386,4689.11C13386,4690.08,13385.2,4690.86,13384.3,4690.86L13378.2,4690.86L13378.2,4705.78L13374.9,4705.78L13374.9,4690.86L13368.8,4690.86C13367.8,4690.86,13367,4690.08,13367,4689.11L13367,4628.23C13367,4627.26,13367.8,4626.48,13368.8,4626.48L13374.9,4626.48L13374.9,4604.93L13378.2,4604.93L13378.2,4626.48ZM13410.9,4656.95L13410.9,4649.63L13414.2,4649.63L13414.2,4656.95L13420.3,4656.95C13421.2,4656.95,13422,4657.73,13422,4658.7L13422,4778.48C13422,4779.45,13421.2,4780.23,13420.3,4780.23L13414.2,4780.23L13414.2,4786.75L13410.9,4786.75L13410.9,4780.23L13404.8,4780.23C13403.8,4780.23,13403,4779.45,13403,4778.48L13403,4658.7C13403,4657.73,13403.8,4656.95,13404.8,4656.95L13410.9,4656.95ZM12685.2,4693.87L12685.2,4687.65L12688.5,4687.65L12688.5,4693.87L12694.6,4693.87C12695,4693.87,12695.5,4694.06,12695.8,4694.39C12696.2,4694.72,12696.3,4695.16,12696.3,4695.62L12696.3,4805.49C12696.3,4805.96,12696.2,4806.4,12695.8,4806.73C12695.5,4807.06,12695,4807.24,12694.6,4807.24L12688.5,4807.24L12688.5,4831.64L12685.2,4831.64L12685.2,4807.24L12679.1,4807.24C12678.6,4807.24,12678.2,4807.06,12677.9,4806.73C12677.5,4806.4,12677.4,4805.96,12677.4,4805.49L12677.4,4695.62C12677.4,4695.16,12677.5,4694.72,12677.9,4694.39C12678.2,4694.06,12678.6,4693.87,12679.1,4693.87L12685.2,4693.87ZM12471.4,4742.27L12477.5,4742.27C12477.9,4742.27,12478.4,4742.45,12478.7,4742.78C12479,4743.11,12479.2,4743.56,12479.2,4744.02L12479.2,4806.07C12479.2,4806.53,12479,4806.98,12478.7,4807.31C12478.4,4807.64,12477.9,4807.82,12477.5,4807.82L12471.4,4807.82L12471.4,4818.45L12468.1,4818.45L12468.1,4807.82L12462,4807.82C12461.5,4807.82,12461.1,4807.64,12460.7,4807.31C12460.4,4806.98,12460.2,4806.53,12460.2,4806.07L12460.2,4744.02C12460.2,4743.56,12460.4,4743.11,12460.7,4742.78C12461.1,4742.45,12461.5,4742.27,12462,4742.27L12468.1,4742.27L12468.1,4718.45L12471.4,4718.45L12471.4,4742.27ZM12431.8,4672L12431.8,4656.46L12435.1,4656.46L12435.1,4672L12441.2,4672C12442.2,4672,12443,4672.78,12443,4673.75L12443,4769.81C12443,4770.77,12442.2,4771.56,12441.2,4771.56L12435.1,4771.56L12435.1,4794.07L12431.8,4794.07L12431.8,4771.56L12425.8,4771.56C12424.8,4771.56,12424,4770.77,12424,4769.81L12424,4673.75C12424,4672.78,12424.8,4672,12425.8,4672L12431.8,4672ZM12616,4705.83L12622.1,4705.83C12622.6,4705.83,12623,4706.01,12623.4,4706.34C12623.7,4706.67,12623.9,4707.11,12623.9,4707.58L12623.9,4760.86C12623.9,4761.32,12623.7,4761.77,12623.4,4762.09C12623,4762.42,12622.6,4762.61,12622.1,4762.61L12616,4762.61L12616,4785.76L12612.7,4785.76L12612.7,4762.61L12606.6,4762.61C12606.2,4762.61,12605.7,4762.42,12605.4,4762.09C12605.1,4761.77,12604.9,4761.32,12604.9,4760.86L12604.9,4707.58C12604.9,4707.11,12605.1,4706.67,12605.4,4706.34C12605.7,4706.01,12606.2,4705.83,12606.6,4705.83L12612.7,4705.83L12612.7,4693.87L12616,4693.87L12616,4705.83ZM12507.6,4694.27L12513.7,4694.27C12514.1,4694.27,12514.6,4694.46,12514.9,4694.79C12515.2,4695.11,12515.4,4695.56,12515.4,4696.02L12515.4,4735.27C12515.4,4735.73,12515.2,4736.17,12514.9,4736.5C12514.6,4736.83,12514.1,4737.02,12513.7,4737.02L12507.6,4737.02L12507.6,4760.68L12504.3,4760.68L12504.3,4737.02L12498.2,4737.02C12497.7,4737.02,12497.3,4736.83,12497,4736.5C12496.6,4736.17,12496.5,4735.73,12496.5,4735.27L12496.5,4696.02C12496.5,4695.56,12496.6,4695.11,12497,4694.79C12497.3,4694.46,12497.7,4694.27,12498.2,4694.27L12504.3,4694.27L12504.3,4684.04L12507.6,4684.04L12507.6,4694.27ZM12649,4695.82L12649,4687.65L12652.3,4687.65L12652.3,4695.82L12658.4,4695.82C12659.3,4695.82,12660.1,4696.61,12660.1,4697.57L12660.1,4733.72C12660.1,4734.68,12659.3,4735.47,12658.4,4735.47L12652.3,4735.47L12652.3,4750.56L12649,4750.56L12649,4735.47L12642.9,4735.47C12641.9,4735.47,12641.1,4734.68,12641.1,4733.72L12641.1,4697.57C12641.1,4696.61,12641.9,4695.82,12642.9,4695.82L12649,4695.82ZM12540.5,4645.52L12540.5,4623.43L12543.8,4623.43L12543.8,4645.52L12549.9,4645.52C12550.3,4645.52,12550.8,4645.7,12551.1,4646.03C12551.4,4646.36,12551.6,4646.8,12551.6,4647.27L12551.6,4688.48C12551.6,4688.94,12551.4,4689.39,12551.1,4689.71C12550.8,4690.04,12550.3,4690.23,12549.9,4690.23L12543.8,4690.23L12543.8,4739.94L12540.5,4739.94L12540.5,4690.23L12534.4,4690.23C12533.9,4690.23,12533.5,4690.04,12533.2,4689.71C12532.8,4689.39,12532.7,4688.94,12532.7,4688.48L12532.7,4647.27C12532.7,4646.8,12532.8,4646.36,12533.2,4646.03C12533.5,4645.7,12533.9,4645.52,12534.4,4645.52L12540.5,4645.52ZM12576.9,4612.17L12576.9,4581.23L12580.2,4581.23L12580.2,4612.17L12586.2,4612.17C12587.2,4612.17,12588,4612.95,12588,4613.92L12588,4721.91C12588,4722.88,12587.2,4723.66,12586.2,4723.66L12580.2,4723.66L12580.2,4734.22L12576.9,4734.22L12576.9,4723.66L12570.8,4723.66C12569.8,4723.66,12569,4722.88,12569,4721.91L12569,4613.92C12569,4612.95,12569.8,4612.17,12570.8,4612.17L12576.9,4612.17Z" fill="rgb(5,47,103)" transform="translate(12923,4733.92) translate(-12923,-4733.92)"/>
            </g>
        </g>
        <g transform="translate(752.215,90.8326) scale(0.461315,1) translate(-14055.5,-4389.82)">
            <g transform="translate(14055.5,4389.82) scale(1.07637,0.496543) translate(-12923,-4733.92)">
                <path d="M12976,4779.08L12976,4772.85L12979.3,4772.85L12979.3,4779.08L12985.3,4779.08C12985.8,4779.08,12986.3,4779.26,12986.6,4779.59C12986.9,4779.92,12987.1,4780.36,12987.1,4780.83L12987.1,4890.7C12987.1,4891.16,12986.9,4891.61,12986.6,4891.93C12986.3,4892.26,12985.8,4892.45,12985.3,4892.45L12979.3,4892.45L12979.3,4916.85L12976,4916.85L12976,4892.45L12969.9,4892.45C12969.4,4892.45,12969,4892.26,12968.6,4891.93C12968.3,4891.61,12968.1,4891.16,12968.1,4890.7L12968.1,4780.83C12968.1,4780.36,12968.3,4779.92,12968.6,4779.59C12969,4779.26,12969.4,4779.08,12969.9,4779.08L12976,4779.08ZM12762.1,4827.47L12768.2,4827.47C12768.7,4827.47,12769.1,4827.66,12769.5,4827.99C12769.8,4828.32,12770,4828.76,12770,4829.22L12770,4891.27C12770,4891.74,12769.8,4892.18,12769.5,4892.51C12769.1,4892.84,12768.7,4893.02,12768.2,4893.02L12762.1,4893.02L12762.1,4903.66L12758.8,4903.66L12758.8,4893.02L12752.7,4893.02C12752.3,4893.02,12751.8,4892.84,12751.5,4892.51C12751.2,4892.18,12751,4891.74,12751,4891.27L12751,4829.22C12751,4828.76,12751.2,4828.32,12751.5,4827.99C12751.8,4827.66,12752.3,4827.47,12752.7,4827.47L12758.8,4827.47L12758.8,4803.66L12762.1,4803.66L12762.1,4827.47ZM12722.6,4757.2L12722.6,4741.67L12725.9,4741.67L12725.9,4757.2L12732,4757.2C12733,4757.2,12733.7,4757.98,12733.7,4758.95L12733.7,4855.01C12733.7,4855.98,12733,4856.76,12732,4856.76L12725.9,4856.76L12725.9,4879.27L12722.6,4879.27L12722.6,4856.76L12716.5,4856.76C12715.5,4856.76,12714.8,4855.98,12714.8,4855.01L12714.8,4758.95C12714.8,4757.98,12715.5,4757.2,12716.5,4757.2L12722.6,4757.2ZM12906.8,4791.03L12912.9,4791.03C12913.3,4791.03,12913.8,4791.22,12914.1,4791.54C12914.4,4791.87,12914.6,4792.32,12914.6,4792.78L12914.6,4846.06C12914.6,4846.52,12914.4,4846.97,12914.1,4847.3C12913.8,4847.62,12913.3,4847.81,12912.9,4847.81L12906.8,4847.81L12906.8,4870.96L12903.5,4870.96L12903.5,4847.81L12897.4,4847.81C12896.9,4847.81,12896.5,4847.62,12896.2,4847.3C12895.8,4846.97,12895.7,4846.52,12895.7,4846.06L12895.7,4792.78C12895.7,4792.32,12895.8,4791.87,12896.2,4791.54C12896.5,4791.22,12896.9,4791.03,12897.4,4791.03L12903.5,4791.03L12903.5,4779.08L12906.8,4779.08L12906.8,4791.03ZM12798.4,4779.48L12804.4,4779.48C12804.9,4779.48,12805.3,4779.66,12805.7,4779.99C12806,4780.32,12806.2,4780.76,12806.2,4781.23L12806.2,4820.47C12806.2,4820.93,12806,4821.38,12805.7,4821.71C12805.3,4822.03,12804.9,4822.22,12804.4,4822.22L12798.4,4822.22L12798.4,4845.89L12795.1,4845.89L12795.1,4822.22L12789,4822.22C12788.5,4822.22,12788.1,4822.03,12787.7,4821.71C12787.4,4821.38,12787.2,4820.93,12787.2,4820.47L12787.2,4781.23C12787.2,4780.76,12787.4,4780.32,12787.7,4779.99C12788.1,4779.66,12788.5,4779.48,12789,4779.48L12795.1,4779.48L12795.1,4769.24L12798.4,4769.24L12798.4,4779.48ZM12939.7,4781.03L12939.7,4772.85L12943,4772.85L12943,4781.03L12949.1,4781.03C12950.1,4781.03,12950.9,4781.81,12950.9,4782.78L12950.9,4818.92C12950.9,4819.89,12950.1,4820.67,12949.1,4820.67L12943,4820.67L12943,4835.76L12939.7,4835.76L12939.7,4820.67L12933.7,4820.67C12932.7,4820.67,12931.9,4819.89,12931.9,4818.92L12931.9,4782.78C12931.9,4781.81,12932.7,4781.03,12933.7,4781.03L12939.7,4781.03ZM13012.4,4651.16L13012.4,4645.24L13015.7,4645.24L13015.7,4651.16L13021.8,4651.16C13022.2,4651.16,13022.7,4651.34,13023,4651.67C13023.3,4652,13023.5,4652.44,13023.5,4652.91L13023.5,4796.27C13023.5,4796.74,13023.3,4797.18,13023,4797.51C13022.7,4797.84,13022.2,4798.02,13021.8,4798.02L13015.7,4798.02L13015.7,4825.84L13012.4,4825.84L13012.4,4798.02L13006.3,4798.02C13005.8,4798.02,13005.4,4797.84,13005.1,4797.51C13004.7,4797.18,13004.5,4796.74,13004.5,4796.27L13004.5,4652.91C13004.5,4652.44,13004.7,4652,13005.1,4651.67C13005.4,4651.34,13005.8,4651.16,13006.3,4651.16L13012.4,4651.16ZM12831.3,4758.73L12831.3,4736.65L12834.6,4736.65L12834.6,4758.73L12840.6,4758.73C12841.1,4758.73,12841.6,4758.92,12841.9,4759.24C12842.2,4759.57,12842.4,4760.02,12842.4,4760.48L12842.4,4773.68C12842.4,4774.14,12842.2,4774.59,12841.9,4774.92C12841.6,4775.24,12841.1,4775.43,12840.6,4775.43L12834.6,4775.43L12834.6,4825.14L12831.3,4825.14L12831.3,4775.43L12825.2,4775.43C12824.7,4775.43,12824.3,4775.24,12823.9,4774.92C12823.6,4774.59,12823.4,4774.14,12823.4,4773.68L12823.4,4760.48C12823.4,4760.02,12823.6,4759.57,12823.9,4759.24C12824.3,4758.92,12824.7,4758.73,12825.2,4758.73L12831.3,4758.73ZM12867.6,4751.68L12867.6,4744.46L12870.9,4744.46L12870.9,4751.68L12877,4751.68C12878,4751.68,12878.8,4752.46,12878.8,4753.43L12878.8,4807.11C12878.8,4808.08,12878,4808.86,12877,4808.86L12870.9,4808.86L12870.9,4819.42L12867.6,4819.42L12867.6,4808.86L12861.5,4808.86C12860.6,4808.86,12859.8,4808.08,12859.8,4807.11L12859.8,4753.43C12859.8,4752.46,12860.6,4751.68,12861.5,4751.68L12867.6,4751.68ZM13193.5,4743.75L13187.4,4743.75C13187,4743.75,13186.5,4743.56,13186.2,4743.23C13185.9,4742.91,13185.7,4742.46,13185.7,4742L13185.7,4694.5C13185.7,4694.03,13185.9,4693.59,13186.2,4693.26C13186.5,4692.93,13187,4692.75,13187.4,4692.75L13202.9,4692.75C13203.4,4692.75,13203.8,4692.93,13204.2,4693.26C13204.5,4693.59,13204.7,4694.03,13204.7,4694.5L13204.7,4742C13204.7,4742.46,13204.5,4742.91,13204.2,4743.23C13203.8,4743.56,13203.4,4743.75,13202.9,4743.75L13196.8,4743.75L13196.8,4784.47L13193.5,4784.47L13193.5,4743.75ZM13051.9,4573.13L13058,4573.13C13058.5,4573.13,13058.9,4573.31,13059.3,4573.64C13059.6,4573.97,13059.8,4574.42,13059.8,4574.88L13059.8,4758.59C13059.8,4759.05,13059.6,4759.5,13059.3,4759.82C13058.9,4760.15,13058.5,4760.34,13058,4760.34L13051.9,4760.34L13051.9,4784.47L13048.6,4784.47L13048.6,4760.34L13042.5,4760.34C13042.1,4760.34,13041.6,4760.15,13041.3,4759.82C13041,4759.5,13040.8,4759.05,13040.8,4758.59L13040.8,4574.88C13040.8,4574.42,13041,4573.97,13041.3,4573.64C13041.6,4573.31,13042.1,4573.13,13042.5,4573.13L13048.6,4573.13L13048.6,4550.99L13051.9,4550.99L13051.9,4573.13ZM13265.9,4624.28L13265.9,4600.99L13269.2,4600.99L13269.2,4624.28L13275.3,4624.28C13275.7,4624.28,13276.2,4624.47,13276.5,4624.79C13276.8,4625.12,13277,4625.57,13277,4626.03L13277,4741.47C13277,4741.93,13276.8,4742.38,13276.5,4742.7C13276.2,4743.03,13275.7,4743.22,13275.3,4743.22L13269.2,4743.22L13269.2,4767.66L13265.9,4767.66L13265.9,4743.22L13259.8,4743.22C13259.3,4743.22,13258.9,4743.03,13258.6,4742.7C13258.2,4742.38,13258,4741.93,13258,4741.47L13258,4626.03C13258,4625.57,13258.2,4625.12,13258.6,4624.79C13258.9,4624.47,13259.3,4624.28,13259.8,4624.28L13265.9,4624.28ZM13121.1,4742.92L13115,4742.92C13114.5,4742.92,13114.1,4742.74,13113.8,4742.41C13113.4,4742.08,13113.2,4741.64,13113.2,4741.17L13113.2,4660.4C13113.2,4659.93,13113.4,4659.49,13113.8,4659.16C13114.1,4658.83,13114.5,4658.65,13115,4658.65L13130.5,4658.65C13130.9,4658.65,13131.4,4658.83,13131.7,4659.16C13132,4659.49,13132.2,4659.93,13132.2,4660.4L13132.2,4741.17C13132.2,4741.64,13132,4742.08,13131.7,4742.41C13131.4,4742.74,13130.9,4742.92,13130.5,4742.92L13124.4,4742.92L13124.4,4767.24L13121.1,4767.24L13121.1,4742.92ZM13084.7,4696.65L13078.6,4696.65C13078.2,4696.65,13077.7,4696.47,13077.4,4696.14C13077.1,4695.81,13076.9,4695.37,13076.9,4694.9L13076.9,4595.26C13076.9,4594.8,13077.1,4594.35,13077.4,4594.02C13077.7,4593.7,13078.2,4593.51,13078.6,4593.51L13094.1,4593.51C13094.6,4593.51,13095,4593.7,13095.3,4594.02C13095.7,4594.35,13095.8,4594.8,13095.8,4595.26L13095.8,4694.9C13095.8,4695.37,13095.7,4695.81,13095.3,4696.14C13095,4696.47,13094.6,4696.65,13094.1,4696.65L13088,4696.65L13088,4718.77L13084.7,4718.77L13084.7,4696.65ZM13233,4692.75L13239,4692.75C13240,4692.75,13240.8,4693.53,13240.8,4694.5L13240.8,4712.61C13240.8,4713.57,13240,4714.36,13239,4714.36L13233,4714.36L13233,4738.8L13229.7,4738.8L13229.7,4714.36L13223.6,4714.36C13222.6,4714.36,13221.8,4713.57,13221.8,4712.61L13221.8,4694.5C13221.8,4693.53,13222.6,4692.75,13223.6,4692.75L13229.7,4692.75L13229.7,4687.45L13233,4687.45L13233,4692.75ZM13157.2,4675.63L13157.2,4653.22L13160.5,4653.22L13160.5,4675.63L13166.6,4675.63C13167,4675.63,13167.5,4675.81,13167.8,4676.14C13168.1,4676.47,13168.3,4676.92,13168.3,4677.38L13168.3,4689.18C13168.3,4689.64,13168.1,4690.09,13167.8,4690.42C13167.5,4690.74,13167,4690.93,13166.6,4690.93L13160.5,4690.93L13160.5,4715.28L13157.2,4715.28L13157.2,4690.93L13151.1,4690.93C13150.6,4690.93,13150.2,4690.74,13149.9,4690.42C13149.5,4690.09,13149.4,4689.64,13149.4,4689.18L13149.4,4677.38C13149.4,4676.92,13149.5,4676.47,13149.9,4676.14C13150.2,4675.81,13150.6,4675.63,13151.1,4675.63L13157.2,4675.63ZM13338.3,4640.86L13338.3,4619.31L13341.6,4619.31L13341.6,4640.86L13347.7,4640.86C13348.2,4640.86,13348.6,4641.04,13348.9,4641.37C13349.3,4641.7,13349.4,4642.15,13349.4,4642.61L13349.4,4655.69C13349.4,4656.15,13349.3,4656.6,13348.9,4656.92C13348.6,4657.25,13348.2,4657.44,13347.7,4657.44L13341.6,4657.44L13341.6,4681.44L13338.3,4681.44L13338.3,4657.44L13332.2,4657.44C13331.8,4657.44,13331.3,4657.25,13331,4656.92C13330.6,4656.6,13330.5,4656.15,13330.5,4655.69L13330.5,4642.61C13330.5,4642.15,13330.6,4641.7,13331,4641.37C13331.3,4641.04,13331.8,4640.86,13332.2,4640.86L13338.3,4640.86ZM13305.6,4640.86L13311.7,4640.86C13312.2,4640.86,13312.6,4641.04,13312.9,4641.37C13313.3,4641.7,13313.4,4642.15,13313.4,4642.61L13313.4,4672.26C13313.4,4672.73,13313.3,4673.17,13312.9,4673.5C13312.6,4673.83,13312.2,4674.01,13311.7,4674.01L13305.6,4674.01L13305.6,4681.44L13302.3,4681.44L13302.3,4674.01L13296.2,4674.01C13295.8,4674.01,13295.3,4673.83,13295,4673.5C13294.7,4673.17,13294.5,4672.73,13294.5,4672.26L13294.5,4642.61C13294.5,4642.15,13294.7,4641.7,13295,4641.37C13295.3,4641.04,13295.8,4640.86,13296.2,4640.86L13302.3,4640.86L13302.3,4619.31L13305.6,4619.31L13305.6,4640.86ZM13378.2,4626.48L13384.3,4626.48C13385.2,4626.48,13386,4627.26,13386,4628.23L13386,4689.11C13386,4690.08,13385.2,4690.86,13384.3,4690.86L13378.2,4690.86L13378.2,4705.78L13374.9,4705.78L13374.9,4690.86L13368.8,4690.86C13367.8,4690.86,13367,4690.08,13367,4689.11L13367,4628.23C13367,4627.26,13367.8,4626.48,13368.8,4626.48L13374.9,4626.48L13374.9,4604.93L13378.2,4604.93L13378.2,4626.48ZM13410.9,4656.95L13410.9,4649.63L13414.2,4649.63L13414.2,4656.95L13420.3,4656.95C13421.2,4656.95,13422,4657.73,13422,4658.7L13422,4778.48C13422,4779.45,13421.2,4780.23,13420.3,4780.23L13414.2,4780.23L13414.2,4786.75L13410.9,4786.75L13410.9,4780.23L13404.8,4780.23C13403.8,4780.23,13403,4779.45,13403,4778.48L13403,4658.7C13403,4657.73,13403.8,4656.95,13404.8,4656.95L13410.9,4656.95ZM12685.2,4693.87L12685.2,4687.65L12688.5,4687.65L12688.5,4693.87L12694.6,4693.87C12695,4693.87,12695.5,4694.06,12695.8,4694.39C12696.2,4694.72,12696.3,4695.16,12696.3,4695.62L12696.3,4805.49C12696.3,4805.96,12696.2,4806.4,12695.8,4806.73C12695.5,4807.06,12695,4807.24,12694.6,4807.24L12688.5,4807.24L12688.5,4831.64L12685.2,4831.64L12685.2,4807.24L12679.1,4807.24C12678.6,4807.24,12678.2,4807.06,12677.9,4806.73C12677.5,4806.4,12677.4,4805.96,12677.4,4805.49L12677.4,4695.62C12677.4,4695.16,12677.5,4694.72,12677.9,4694.39C12678.2,4694.06,12678.6,4693.87,12679.1,4693.87L12685.2,4693.87ZM12471.4,4742.27L12477.5,4742.27C12477.9,4742.27,12478.4,4742.45,12478.7,4742.78C12479,4743.11,12479.2,4743.56,12479.2,4744.02L12479.2,4806.07C12479.2,4806.53,12479,4806.98,12478.7,4807.31C12478.4,4807.64,12477.9,4807.82,12477.5,4807.82L12471.4,4807.82L12471.4,4818.45L12468.1,4818.45L12468.1,4807.82L12462,4807.82C12461.5,4807.82,12461.1,4807.64,12460.7,4807.31C12460.4,4806.98,12460.2,4806.53,12460.2,4806.07L12460.2,4744.02C12460.2,4743.56,12460.4,4743.11,12460.7,4742.78C12461.1,4742.45,12461.5,4742.27,12462,4742.27L12468.1,4742.27L12468.1,4718.45L12471.4,4718.45L12471.4,4742.27ZM12431.8,4672L12431.8,4656.46L12435.1,4656.46L12435.1,4672L12441.2,4672C12442.2,4672,12443,4672.78,12443,4673.75L12443,4769.81C12443,4770.77,12442.2,4771.56,12441.2,4771.56L12435.1,4771.56L12435.1,4794.07L12431.8,4794.07L12431.8,4771.56L12425.8,4771.56C12424.8,4771.56,12424,4770.77,12424,4769.81L12424,4673.75C12424,4672.78,12424.8,4672,12425.8,4672L12431.8,4672ZM12616,4705.83L12622.1,4705.83C12622.6,4705.83,12623,4706.01,12623.4,4706.34C12623.7,4706.67,12623.9,4707.11,12623.9,4707.58L12623.9,4760.86C12623.9,4761.32,12623.7,4761.77,12623.4,4762.09C12623,4762.42,12622.6,4762.61,12622.1,4762.61L12616,4762.61L12616,4785.76L12612.7,4785.76L12612.7,4762.61L12606.6,4762.61C12606.2,4762.61,12605.7,4762.42,12605.4,4762.09C12605.1,4761.77,12604.9,4761.32,12604.9,4760.86L12604.9,4707.58C12604.9,4707.11,12605.1,4706.67,12605.4,4706.34C12605.7,4706.01,12606.2,4705.83,12606.6,4705.83L12612.7,4705.83L12612.7,4693.87L12616,4693.87L12616,4705.83ZM12507.6,4694.27L12513.7,4694.27C12514.1,4694.27,12514.6,4694.46,12514.9,4694.79C12515.2,4695.11,12515.4,4695.56,12515.4,4696.02L12515.4,4735.27C12515.4,4735.73,12515.2,4736.17,12514.9,4736.5C12514.6,4736.83,12514.1,4737.02,12513.7,4737.02L12507.6,4737.02L12507.6,4760.68L12504.3,4760.68L12504.3,4737.02L12498.2,4737.02C12497.7,4737.02,12497.3,4736.83,12497,4736.5C12496.6,4736.17,12496.5,4735.73,12496.5,4735.27L12496.5,4696.02C12496.5,4695.56,12496.6,4695.11,12497,4694.79C12497.3,4694.46,12497.7,4694.27,12498.2,4694.27L12504.3,4694.27L12504.3,4684.04L12507.6,4684.04L12507.6,4694.27ZM12649,4695.82L12649,4687.65L12652.3,4687.65L12652.3,4695.82L12658.4,4695.82C12659.3,4695.82,12660.1,4696.61,12660.1,4697.57L12660.1,4733.72C12660.1,4734.68,12659.3,4735.47,12658.4,4735.47L12652.3,4735.47L12652.3,4750.56L12649,4750.56L12649,4735.47L12642.9,4735.47C12641.9,4735.47,12641.1,4734.68,12641.1,4733.72L12641.1,4697.57C12641.1,4696.61,12641.9,4695.82,12642.9,4695.82L12649,4695.82ZM12540.5,4645.52L12540.5,4623.43L12543.8,4623.43L12543.8,4645.52L12549.9,4645.52C12550.3,4645.52,12550.8,4645.7,12551.1,4646.03C12551.4,4646.36,12551.6,4646.8,12551.6,4647.27L12551.6,4688.48C12551.6,4688.94,12551.4,4689.39,12551.1,4689.71C12550.8,4690.04,12550.3,4690.23,12549.9,4690.23L12543.8,4690.23L12543.8,4739.94L12540.5,4739.94L12540.5,4690.23L12534.4,4690.23C12533.9,4690.23,12533.5,4690.04,12533.2,4689.71C12532.8,4689.39,12532.7,4688.94,12532.7,4688.48L12532.7,4647.27C12532.7,4646.8,12532.8,4646.36,12533.2,4646.03C12533.5,4645.7,12533.9,4645.52,12534.4,4645.52L12540.5,4645.52ZM12576.9,4612.17L12576.9,4581.23L12580.2,4581.23L12580.2,4612.17L12586.2,4612.17C12587.2,4612.17,12588,4612.95,12588,4613.92L12588,4721.91C12588,4722.88,12587.2,4723.66,12586.2,4723.66L12580.2,4723.66L12580.2,4734.22L12576.9,4734.22L12576.9,4723.66L12570.8,4723.66C12569.8,4723.66,12569,4722.88,12569,4721.91L12569,4613.92C12569,4612.95,12569.8,4612.17,12570.8,4612.17L12576.9,4612.17Z" fill="rgb(5,47,103)" transform="translate(12923,4733.92) translate(-12923,-4733.92)"/>
            </g>
        </g>
    </g>
    <g clip-rule="evenodd" fill-rule="evenodd" stroke-linejoin="round" stroke-miterlimit="2" transform="translate(500.024,90.8248) translate(-499.996,-90.8326)" style="animation: 18s linear infinite both a1_t;">
        <g transform="translate(247.776,90.8326) scale(0.461315,1) translate(-12962,-4389.82)">
            <g transform="translate(12962,4389.82) scale(1.07637,0.496543) translate(-12923,-4733.92)">
                <path d="M12976,4779.08L12976,4772.85L12979.3,4772.85L12979.3,4779.08L12985.3,4779.08C12985.8,4779.08,12986.3,4779.26,12986.6,4779.59C12986.9,4779.92,12987.1,4780.36,12987.1,4780.83L12987.1,4890.7C12987.1,4891.16,12986.9,4891.61,12986.6,4891.93C12986.3,4892.26,12985.8,4892.45,12985.3,4892.45L12979.3,4892.45L12979.3,4916.85L12976,4916.85L12976,4892.45L12969.9,4892.45C12969.4,4892.45,12969,4892.26,12968.6,4891.93C12968.3,4891.61,12968.1,4891.16,12968.1,4890.7L12968.1,4780.83C12968.1,4780.36,12968.3,4779.92,12968.6,4779.59C12969,4779.26,12969.4,4779.08,12969.9,4779.08L12976,4779.08ZM12762.1,4827.47L12768.2,4827.47C12768.7,4827.47,12769.1,4827.66,12769.5,4827.99C12769.8,4828.32,12770,4828.76,12770,4829.22L12770,4891.27C12770,4891.74,12769.8,4892.18,12769.5,4892.51C12769.1,4892.84,12768.7,4893.02,12768.2,4893.02L12762.1,4893.02L12762.1,4903.66L12758.8,4903.66L12758.8,4893.02L12752.7,4893.02C12752.3,4893.02,12751.8,4892.84,12751.5,4892.51C12751.2,4892.18,12751,4891.74,12751,4891.27L12751,4829.22C12751,4828.76,12751.2,4828.32,12751.5,4827.99C12751.8,4827.66,12752.3,4827.47,12752.7,4827.47L12758.8,4827.47L12758.8,4803.66L12762.1,4803.66L12762.1,4827.47ZM12722.6,4757.2L12722.6,4741.67L12725.9,4741.67L12725.9,4757.2L12732,4757.2C12733,4757.2,12733.7,4757.98,12733.7,4758.95L12733.7,4855.01C12733.7,4855.98,12733,4856.76,12732,4856.76L12725.9,4856.76L12725.9,4879.27L12722.6,4879.27L12722.6,4856.76L12716.5,4856.76C12715.5,4856.76,12714.8,4855.98,12714.8,4855.01L12714.8,4758.95C12714.8,4757.98,12715.5,4757.2,12716.5,4757.2L12722.6,4757.2ZM12906.8,4791.03L12912.9,4791.03C12913.3,4791.03,12913.8,4791.22,12914.1,4791.54C12914.4,4791.87,12914.6,4792.32,12914.6,4792.78L12914.6,4846.06C12914.6,4846.52,12914.4,4846.97,12914.1,4847.3C12913.8,4847.62,12913.3,4847.81,12912.9,4847.81L12906.8,4847.81L12906.8,4870.96L12903.5,4870.96L12903.5,4847.81L12897.4,4847.81C12896.9,4847.81,12896.5,4847.62,12896.2,4847.3C12895.8,4846.97,12895.7,4846.52,12895.7,4846.06L12895.7,4792.78C12895.7,4792.32,12895.8,4791.87,12896.2,4791.54C12896.5,4791.22,12896.9,4791.03,12897.4,4791.03L12903.5,4791.03L12903.5,4779.08L12906.8,4779.08L12906.8,4791.03ZM12798.4,4779.48L12804.4,4779.48C12804.9,4779.48,12805.3,4779.66,12805.7,4779.99C12806,4780.32,12806.2,4780.76,12806.2,4781.23L12806.2,4820.47C12806.2,4820.93,12806,4821.38,12805.7,4821.71C12805.3,4822.03,12804.9,4822.22,12804.4,4822.22L12798.4,4822.22L12798.4,4845.89L12795.1,4845.89L12795.1,4822.22L12789,4822.22C12788.5,4822.22,12788.1,4822.03,12787.7,4821.71C12787.4,4821.38,12787.2,4820.93,12787.2,4820.47L12787.2,4781.23C12787.2,4780.76,12787.4,4780.32,12787.7,4779.99C12788.1,4779.66,12788.5,4779.48,12789,4779.48L12795.1,4779.48L12795.1,4769.24L12798.4,4769.24L12798.4,4779.48ZM12939.7,4781.03L12939.7,4772.85L12943,4772.85L12943,4781.03L12949.1,4781.03C12950.1,4781.03,12950.9,4781.81,12950.9,4782.78L12950.9,4818.92C12950.9,4819.89,12950.1,4820.67,12949.1,4820.67L12943,4820.67L12943,4835.76L12939.7,4835.76L12939.7,4820.67L12933.7,4820.67C12932.7,4820.67,12931.9,4819.89,12931.9,4818.92L12931.9,4782.78C12931.9,4781.81,12932.7,4781.03,12933.7,4781.03L12939.7,4781.03ZM13012.4,4651.16L13012.4,4645.24L13015.7,4645.24L13015.7,4651.16L13021.8,4651.16C13022.2,4651.16,13022.7,4651.34,13023,4651.67C13023.3,4652,13023.5,4652.44,13023.5,4652.91L13023.5,4796.27C13023.5,4796.74,13023.3,4797.18,13023,4797.51C13022.7,4797.84,13022.2,4798.02,13021.8,4798.02L13015.7,4798.02L13015.7,4825.84L13012.4,4825.84L13012.4,4798.02L13006.3,4798.02C13005.8,4798.02,13005.4,4797.84,13005.1,4797.51C13004.7,4797.18,13004.5,4796.74,13004.5,4796.27L13004.5,4652.91C13004.5,4652.44,13004.7,4652,13005.1,4651.67C13005.4,4651.34,13005.8,4651.16,13006.3,4651.16L13012.4,4651.16ZM12831.3,4758.73L12831.3,4736.65L12834.6,4736.65L12834.6,4758.73L12840.6,4758.73C12841.1,4758.73,12841.6,4758.92,12841.9,4759.24C12842.2,4759.57,12842.4,4760.02,12842.4,4760.48L12842.4,4773.68C12842.4,4774.14,12842.2,4774.59,12841.9,4774.92C12841.6,4775.24,12841.1,4775.43,12840.6,4775.43L12834.6,4775.43L12834.6,4825.14L12831.3,4825.14L12831.3,4775.43L12825.2,4775.43C12824.7,4775.43,12824.3,4775.24,12823.9,4774.92C12823.6,4774.59,12823.4,4774.14,12823.4,4773.68L12823.4,4760.48C12823.4,4760.02,12823.6,4759.57,12823.9,4759.24C12824.3,4758.92,12824.7,4758.73,12825.2,4758.73L12831.3,4758.73ZM12867.6,4751.68L12867.6,4744.46L12870.9,4744.46L12870.9,4751.68L12877,4751.68C12878,4751.68,12878.8,4752.46,12878.8,4753.43L12878.8,4807.11C12878.8,4808.08,12878,4808.86,12877,4808.86L12870.9,4808.86L12870.9,4819.42L12867.6,4819.42L12867.6,4808.86L12861.5,4808.86C12860.6,4808.86,12859.8,4808.08,12859.8,4807.11L12859.8,4753.43C12859.8,4752.46,12860.6,4751.68,12861.5,4751.68L12867.6,4751.68ZM13193.5,4743.75L13187.4,4743.75C13187,4743.75,13186.5,4743.56,13186.2,4743.23C13185.9,4742.91,13185.7,4742.46,13185.7,4742L13185.7,4694.5C13185.7,4694.03,13185.9,4693.59,13186.2,4693.26C13186.5,4692.93,13187,4692.75,13187.4,4692.75L13202.9,4692.75C13203.4,4692.75,13203.8,4692.93,13204.2,4693.26C13204.5,4693.59,13204.7,4694.03,13204.7,4694.5L13204.7,4742C13204.7,4742.46,13204.5,4742.91,13204.2,4743.23C13203.8,4743.56,13203.4,4743.75,13202.9,4743.75L13196.8,4743.75L13196.8,4784.47L13193.5,4784.47L13193.5,4743.75ZM13051.9,4573.13L13058,4573.13C13058.5,4573.13,13058.9,4573.31,13059.3,4573.64C13059.6,4573.97,13059.8,4574.42,13059.8,4574.88L13059.8,4758.59C13059.8,4759.05,13059.6,4759.5,13059.3,4759.82C13058.9,4760.15,13058.5,4760.34,13058,4760.34L13051.9,4760.34L13051.9,4784.47L13048.6,4784.47L13048.6,4760.34L13042.5,4760.34C13042.1,4760.34,13041.6,4760.15,13041.3,4759.82C13041,4759.5,13040.8,4759.05,13040.8,4758.59L13040.8,4574.88C13040.8,4574.42,13041,4573.97,13041.3,4573.64C13041.6,4573.31,13042.1,4573.13,13042.5,4573.13L13048.6,4573.13L13048.6,4550.99L13051.9,4550.99L13051.9,4573.13ZM13265.9,4624.28L13265.9,4600.99L13269.2,4600.99L13269.2,4624.28L13275.3,4624.28C13275.7,4624.28,13276.2,4624.47,13276.5,4624.79C13276.8,4625.12,13277,4625.57,13277,4626.03L13277,4741.47C13277,4741.93,13276.8,4742.38,13276.5,4742.7C13276.2,4743.03,13275.7,4743.22,13275.3,4743.22L13269.2,4743.22L13269.2,4767.66L13265.9,4767.66L13265.9,4743.22L13259.8,4743.22C13259.3,4743.22,13258.9,4743.03,13258.6,4742.7C13258.2,4742.38,13258,4741.93,13258,4741.47L13258,4626.03C13258,4625.57,13258.2,4625.12,13258.6,4624.79C13258.9,4624.47,13259.3,4624.28,13259.8,4624.28L13265.9,4624.28ZM13121.1,4742.92L13115,4742.92C13114.5,4742.92,13114.1,4742.74,13113.8,4742.41C13113.4,4742.08,13113.2,4741.64,13113.2,4741.17L13113.2,4660.4C13113.2,4659.93,13113.4,4659.49,13113.8,4659.16C13114.1,4658.83,13114.5,4658.65,13115,4658.65L13130.5,4658.65C13130.9,4658.65,13131.4,4658.83,13131.7,4659.16C13132,4659.49,13132.2,4659.93,13132.2,4660.4L13132.2,4741.17C13132.2,4741.64,13132,4742.08,13131.7,4742.41C13131.4,4742.74,13130.9,4742.92,13130.5,4742.92L13124.4,4742.92L13124.4,4767.24L13121.1,4767.24L13121.1,4742.92ZM13084.7,4696.65L13078.6,4696.65C13078.2,4696.65,13077.7,4696.47,13077.4,4696.14C13077.1,4695.81,13076.9,4695.37,13076.9,4694.9L13076.9,4595.26C13076.9,4594.8,13077.1,4594.35,13077.4,4594.02C13077.7,4593.7,13078.2,4593.51,13078.6,4593.51L13094.1,4593.51C13094.6,4593.51,13095,4593.7,13095.3,4594.02C13095.7,4594.35,13095.8,4594.8,13095.8,4595.26L13095.8,4694.9C13095.8,4695.37,13095.7,4695.81,13095.3,4696.14C13095,4696.47,13094.6,4696.65,13094.1,4696.65L13088,4696.65L13088,4718.77L13084.7,4718.77L13084.7,4696.65ZM13233,4692.75L13239,4692.75C13240,4692.75,13240.8,4693.53,13240.8,4694.5L13240.8,4712.61C13240.8,4713.57,13240,4714.36,13239,4714.36L13233,4714.36L13233,4738.8L13229.7,4738.8L13229.7,4714.36L13223.6,4714.36C13222.6,4714.36,13221.8,4713.57,13221.8,4712.61L13221.8,4694.5C13221.8,4693.53,13222.6,4692.75,13223.6,4692.75L13229.7,4692.75L13229.7,4687.45L13233,4687.45L13233,4692.75ZM13157.2,4675.63L13157.2,4653.22L13160.5,4653.22L13160.5,4675.63L13166.6,4675.63C13167,4675.63,13167.5,4675.81,13167.8,4676.14C13168.1,4676.47,13168.3,4676.92,13168.3,4677.38L13168.3,4689.18C13168.3,4689.64,13168.1,4690.09,13167.8,4690.42C13167.5,4690.74,13167,4690.93,13166.6,4690.93L13160.5,4690.93L13160.5,4715.28L13157.2,4715.28L13157.2,4690.93L13151.1,4690.93C13150.6,4690.93,13150.2,4690.74,13149.9,4690.42C13149.5,4690.09,13149.4,4689.64,13149.4,4689.18L13149.4,4677.38C13149.4,4676.92,13149.5,4676.47,13149.9,4676.14C13150.2,4675.81,13150.6,4675.63,13151.1,4675.63L13157.2,4675.63ZM13338.3,4640.86L13338.3,4619.31L13341.6,4619.31L13341.6,4640.86L13347.7,4640.86C13348.2,4640.86,13348.6,4641.04,13348.9,4641.37C13349.3,4641.7,13349.4,4642.15,13349.4,4642.61L13349.4,4655.69C13349.4,4656.15,13349.3,4656.6,13348.9,4656.92C13348.6,4657.25,13348.2,4657.44,13347.7,4657.44L13341.6,4657.44L13341.6,4681.44L13338.3,4681.44L13338.3,4657.44L13332.2,4657.44C13331.8,4657.44,13331.3,4657.25,13331,4656.92C13330.6,4656.6,13330.5,4656.15,13330.5,4655.69L13330.5,4642.61C13330.5,4642.15,13330.6,4641.7,13331,4641.37C13331.3,4641.04,13331.8,4640.86,13332.2,4640.86L13338.3,4640.86ZM13305.6,4640.86L13311.7,4640.86C13312.2,4640.86,13312.6,4641.04,13312.9,4641.37C13313.3,4641.7,13313.4,4642.15,13313.4,4642.61L13313.4,4672.26C13313.4,4672.73,13313.3,4673.17,13312.9,4673.5C13312.6,4673.83,13312.2,4674.01,13311.7,4674.01L13305.6,4674.01L13305.6,4681.44L13302.3,4681.44L13302.3,4674.01L13296.2,4674.01C13295.8,4674.01,13295.3,4673.83,13295,4673.5C13294.7,4673.17,13294.5,4672.73,13294.5,4672.26L13294.5,4642.61C13294.5,4642.15,13294.7,4641.7,13295,4641.37C13295.3,4641.04,13295.8,4640.86,13296.2,4640.86L13302.3,4640.86L13302.3,4619.31L13305.6,4619.31L13305.6,4640.86ZM13378.2,4626.48L13384.3,4626.48C13385.2,4626.48,13386,4627.26,13386,4628.23L13386,4689.11C13386,4690.08,13385.2,4690.86,13384.3,4690.86L13378.2,4690.86L13378.2,4705.78L13374.9,4705.78L13374.9,4690.86L13368.8,4690.86C13367.8,4690.86,13367,4690.08,13367,4689.11L13367,4628.23C13367,4627.26,13367.8,4626.48,13368.8,4626.48L13374.9,4626.48L13374.9,4604.93L13378.2,4604.93L13378.2,4626.48ZM13410.9,4656.95L13410.9,4649.63L13414.2,4649.63L13414.2,4656.95L13420.3,4656.95C13421.2,4656.95,13422,4657.73,13422,4658.7L13422,4778.48C13422,4779.45,13421.2,4780.23,13420.3,4780.23L13414.2,4780.23L13414.2,4786.75L13410.9,4786.75L13410.9,4780.23L13404.8,4780.23C13403.8,4780.23,13403,4779.45,13403,4778.48L13403,4658.7C13403,4657.73,13403.8,4656.95,13404.8,4656.95L13410.9,4656.95ZM12685.2,4693.87L12685.2,4687.65L12688.5,4687.65L12688.5,4693.87L12694.6,4693.87C12695,4693.87,12695.5,4694.06,12695.8,4694.39C12696.2,4694.72,12696.3,4695.16,12696.3,4695.62L12696.3,4805.49C12696.3,4805.96,12696.2,4806.4,12695.8,4806.73C12695.5,4807.06,12695,4807.24,12694.6,4807.24L12688.5,4807.24L12688.5,4831.64L12685.2,4831.64L12685.2,4807.24L12679.1,4807.24C12678.6,4807.24,12678.2,4807.06,12677.9,4806.73C12677.5,4806.4,12677.4,4805.96,12677.4,4805.49L12677.4,4695.62C12677.4,4695.16,12677.5,4694.72,12677.9,4694.39C12678.2,4694.06,12678.6,4693.87,12679.1,4693.87L12685.2,4693.87ZM12471.4,4742.27L12477.5,4742.27C12477.9,4742.27,12478.4,4742.45,12478.7,4742.78C12479,4743.11,12479.2,4743.56,12479.2,4744.02L12479.2,4806.07C12479.2,4806.53,12479,4806.98,12478.7,4807.31C12478.4,4807.64,12477.9,4807.82,12477.5,4807.82L12471.4,4807.82L12471.4,4818.45L12468.1,4818.45L12468.1,4807.82L12462,4807.82C12461.5,4807.82,12461.1,4807.64,12460.7,4807.31C12460.4,4806.98,12460.2,4806.53,12460.2,4806.07L12460.2,4744.02C12460.2,4743.56,12460.4,4743.11,12460.7,4742.78C12461.1,4742.45,12461.5,4742.27,12462,4742.27L12468.1,4742.27L12468.1,4718.45L12471.4,4718.45L12471.4,4742.27ZM12431.8,4672L12431.8,4656.46L12435.1,4656.46L12435.1,4672L12441.2,4672C12442.2,4672,12443,4672.78,12443,4673.75L12443,4769.81C12443,4770.77,12442.2,4771.56,12441.2,4771.56L12435.1,4771.56L12435.1,4794.07L12431.8,4794.07L12431.8,4771.56L12425.8,4771.56C12424.8,4771.56,12424,4770.77,12424,4769.81L12424,4673.75C12424,4672.78,12424.8,4672,12425.8,4672L12431.8,4672ZM12616,4705.83L12622.1,4705.83C12622.6,4705.83,12623,4706.01,12623.4,4706.34C12623.7,4706.67,12623.9,4707.11,12623.9,4707.58L12623.9,4760.86C12623.9,4761.32,12623.7,4761.77,12623.4,4762.09C12623,4762.42,12622.6,4762.61,12622.1,4762.61L12616,4762.61L12616,4785.76L12612.7,4785.76L12612.7,4762.61L12606.6,4762.61C12606.2,4762.61,12605.7,4762.42,12605.4,4762.09C12605.1,4761.77,12604.9,4761.32,12604.9,4760.86L12604.9,4707.58C12604.9,4707.11,12605.1,4706.67,12605.4,4706.34C12605.7,4706.01,12606.2,4705.83,12606.6,4705.83L12612.7,4705.83L12612.7,4693.87L12616,4693.87L12616,4705.83ZM12507.6,4694.27L12513.7,4694.27C12514.1,4694.27,12514.6,4694.46,12514.9,4694.79C12515.2,4695.11,12515.4,4695.56,12515.4,4696.02L12515.4,4735.27C12515.4,4735.73,12515.2,4736.17,12514.9,4736.5C12514.6,4736.83,12514.1,4737.02,12513.7,4737.02L12507.6,4737.02L12507.6,4760.68L12504.3,4760.68L12504.3,4737.02L12498.2,4737.02C12497.7,4737.02,12497.3,4736.83,12497,4736.5C12496.6,4736.17,12496.5,4735.73,12496.5,4735.27L12496.5,4696.02C12496.5,4695.56,12496.6,4695.11,12497,4694.79C12497.3,4694.46,12497.7,4694.27,12498.2,4694.27L12504.3,4694.27L12504.3,4684.04L12507.6,4684.04L12507.6,4694.27ZM12649,4695.82L12649,4687.65L12652.3,4687.65L12652.3,4695.82L12658.4,4695.82C12659.3,4695.82,12660.1,4696.61,12660.1,4697.57L12660.1,4733.72C12660.1,4734.68,12659.3,4735.47,12658.4,4735.47L12652.3,4735.47L12652.3,4750.56L12649,4750.56L12649,4735.47L12642.9,4735.47C12641.9,4735.47,12641.1,4734.68,12641.1,4733.72L12641.1,4697.57C12641.1,4696.61,12641.9,4695.82,12642.9,4695.82L12649,4695.82ZM12540.5,4645.52L12540.5,4623.43L12543.8,4623.43L12543.8,4645.52L12549.9,4645.52C12550.3,4645.52,12550.8,4645.7,12551.1,4646.03C12551.4,4646.36,12551.6,4646.8,12551.6,4647.27L12551.6,4688.48C12551.6,4688.94,12551.4,4689.39,12551.1,4689.71C12550.8,4690.04,12550.3,4690.23,12549.9,4690.23L12543.8,4690.23L12543.8,4739.94L12540.5,4739.94L12540.5,4690.23L12534.4,4690.23C12533.9,4690.23,12533.5,4690.04,12533.2,4689.71C12532.8,4689.39,12532.7,4688.94,12532.7,4688.48L12532.7,4647.27C12532.7,4646.8,12532.8,4646.36,12533.2,4646.03C12533.5,4645.7,12533.9,4645.52,12534.4,4645.52L12540.5,4645.52ZM12576.9,4612.17L12576.9,4581.23L12580.2,4581.23L12580.2,4612.17L12586.2,4612.17C12587.2,4612.17,12588,4612.95,12588,4613.92L12588,4721.91C12588,4722.88,12587.2,4723.66,12586.2,4723.66L12580.2,4723.66L12580.2,4734.22L12576.9,4734.22L12576.9,4723.66L12570.8,4723.66C12569.8,4723.66,12569,4722.88,12569,4721.91L12569,4613.92C12569,4612.95,12569.8,4612.17,12570.8,4612.17L12576.9,4612.17Z" fill="url(#Gradient-0)" opacity="0" transform="translate(12923,4733.92) translate(-12923,-4733.92)" style="animation: 18s linear infinite both a2_o;"/>
            </g>
        </g>
        <g transform="translate(752.215,90.8326) scale(0.461315,1) translate(-14055.5,-4389.82)">
            <g transform="translate(14055.5,4389.82) scale(1.07637,0.496543) translate(-12923,-4733.92)">
                <path d="M12976,4779.08L12976,4772.85L12979.3,4772.85L12979.3,4779.08L12985.3,4779.08C12985.8,4779.08,12986.3,4779.26,12986.6,4779.59C12986.9,4779.92,12987.1,4780.36,12987.1,4780.83L12987.1,4890.7C12987.1,4891.16,12986.9,4891.61,12986.6,4891.93C12986.3,4892.26,12985.8,4892.45,12985.3,4892.45L12979.3,4892.45L12979.3,4916.85L12976,4916.85L12976,4892.45L12969.9,4892.45C12969.4,4892.45,12969,4892.26,12968.6,4891.93C12968.3,4891.61,12968.1,4891.16,12968.1,4890.7L12968.1,4780.83C12968.1,4780.36,12968.3,4779.92,12968.6,4779.59C12969,4779.26,12969.4,4779.08,12969.9,4779.08L12976,4779.08ZM12762.1,4827.47L12768.2,4827.47C12768.7,4827.47,12769.1,4827.66,12769.5,4827.99C12769.8,4828.32,12770,4828.76,12770,4829.22L12770,4891.27C12770,4891.74,12769.8,4892.18,12769.5,4892.51C12769.1,4892.84,12768.7,4893.02,12768.2,4893.02L12762.1,4893.02L12762.1,4903.66L12758.8,4903.66L12758.8,4893.02L12752.7,4893.02C12752.3,4893.02,12751.8,4892.84,12751.5,4892.51C12751.2,4892.18,12751,4891.74,12751,4891.27L12751,4829.22C12751,4828.76,12751.2,4828.32,12751.5,4827.99C12751.8,4827.66,12752.3,4827.47,12752.7,4827.47L12758.8,4827.47L12758.8,4803.66L12762.1,4803.66L12762.1,4827.47ZM12722.6,4757.2L12722.6,4741.67L12725.9,4741.67L12725.9,4757.2L12732,4757.2C12733,4757.2,12733.7,4757.98,12733.7,4758.95L12733.7,4855.01C12733.7,4855.98,12733,4856.76,12732,4856.76L12725.9,4856.76L12725.9,4879.27L12722.6,4879.27L12722.6,4856.76L12716.5,4856.76C12715.5,4856.76,12714.8,4855.98,12714.8,4855.01L12714.8,4758.95C12714.8,4757.98,12715.5,4757.2,12716.5,4757.2L12722.6,4757.2ZM12906.8,4791.03L12912.9,4791.03C12913.3,4791.03,12913.8,4791.22,12914.1,4791.54C12914.4,4791.87,12914.6,4792.32,12914.6,4792.78L12914.6,4846.06C12914.6,4846.52,12914.4,4846.97,12914.1,4847.3C12913.8,4847.62,12913.3,4847.81,12912.9,4847.81L12906.8,4847.81L12906.8,4870.96L12903.5,4870.96L12903.5,4847.81L12897.4,4847.81C12896.9,4847.81,12896.5,4847.62,12896.2,4847.3C12895.8,4846.97,12895.7,4846.52,12895.7,4846.06L12895.7,4792.78C12895.7,4792.32,12895.8,4791.87,12896.2,4791.54C12896.5,4791.22,12896.9,4791.03,12897.4,4791.03L12903.5,4791.03L12903.5,4779.08L12906.8,4779.08L12906.8,4791.03ZM12798.4,4779.48L12804.4,4779.48C12804.9,4779.48,12805.3,4779.66,12805.7,4779.99C12806,4780.32,12806.2,4780.76,12806.2,4781.23L12806.2,4820.47C12806.2,4820.93,12806,4821.38,12805.7,4821.71C12805.3,4822.03,12804.9,4822.22,12804.4,4822.22L12798.4,4822.22L12798.4,4845.89L12795.1,4845.89L12795.1,4822.22L12789,4822.22C12788.5,4822.22,12788.1,4822.03,12787.7,4821.71C12787.4,4821.38,12787.2,4820.93,12787.2,4820.47L12787.2,4781.23C12787.2,4780.76,12787.4,4780.32,12787.7,4779.99C12788.1,4779.66,12788.5,4779.48,12789,4779.48L12795.1,4779.48L12795.1,4769.24L12798.4,4769.24L12798.4,4779.48ZM12939.7,4781.03L12939.7,4772.85L12943,4772.85L12943,4781.03L12949.1,4781.03C12950.1,4781.03,12950.9,4781.81,12950.9,4782.78L12950.9,4818.92C12950.9,4819.89,12950.1,4820.67,12949.1,4820.67L12943,4820.67L12943,4835.76L12939.7,4835.76L12939.7,4820.67L12933.7,4820.67C12932.7,4820.67,12931.9,4819.89,12931.9,4818.92L12931.9,4782.78C12931.9,4781.81,12932.7,4781.03,12933.7,4781.03L12939.7,4781.03ZM13012.4,4651.16L13012.4,4645.24L13015.7,4645.24L13015.7,4651.16L13021.8,4651.16C13022.2,4651.16,13022.7,4651.34,13023,4651.67C13023.3,4652,13023.5,4652.44,13023.5,4652.91L13023.5,4796.27C13023.5,4796.74,13023.3,4797.18,13023,4797.51C13022.7,4797.84,13022.2,4798.02,13021.8,4798.02L13015.7,4798.02L13015.7,4825.84L13012.4,4825.84L13012.4,4798.02L13006.3,4798.02C13005.8,4798.02,13005.4,4797.84,13005.1,4797.51C13004.7,4797.18,13004.5,4796.74,13004.5,4796.27L13004.5,4652.91C13004.5,4652.44,13004.7,4652,13005.1,4651.67C13005.4,4651.34,13005.8,4651.16,13006.3,4651.16L13012.4,4651.16ZM12831.3,4758.73L12831.3,4736.65L12834.6,4736.65L12834.6,4758.73L12840.6,4758.73C12841.1,4758.73,12841.6,4758.92,12841.9,4759.24C12842.2,4759.57,12842.4,4760.02,12842.4,4760.48L12842.4,4773.68C12842.4,4774.14,12842.2,4774.59,12841.9,4774.92C12841.6,4775.24,12841.1,4775.43,12840.6,4775.43L12834.6,4775.43L12834.6,4825.14L12831.3,4825.14L12831.3,4775.43L12825.2,4775.43C12824.7,4775.43,12824.3,4775.24,12823.9,4774.92C12823.6,4774.59,12823.4,4774.14,12823.4,4773.68L12823.4,4760.48C12823.4,4760.02,12823.6,4759.57,12823.9,4759.24C12824.3,4758.92,12824.7,4758.73,12825.2,4758.73L12831.3,4758.73ZM12867.6,4751.68L12867.6,4744.46L12870.9,4744.46L12870.9,4751.68L12877,4751.68C12878,4751.68,12878.8,4752.46,12878.8,4753.43L12878.8,4807.11C12878.8,4808.08,12878,4808.86,12877,4808.86L12870.9,4808.86L12870.9,4819.42L12867.6,4819.42L12867.6,4808.86L12861.5,4808.86C12860.6,4808.86,12859.8,4808.08,12859.8,4807.11L12859.8,4753.43C12859.8,4752.46,12860.6,4751.68,12861.5,4751.68L12867.6,4751.68ZM13193.5,4743.75L13187.4,4743.75C13187,4743.75,13186.5,4743.56,13186.2,4743.23C13185.9,4742.91,13185.7,4742.46,13185.7,4742L13185.7,4694.5C13185.7,4694.03,13185.9,4693.59,13186.2,4693.26C13186.5,4692.93,13187,4692.75,13187.4,4692.75L13202.9,4692.75C13203.4,4692.75,13203.8,4692.93,13204.2,4693.26C13204.5,4693.59,13204.7,4694.03,13204.7,4694.5L13204.7,4742C13204.7,4742.46,13204.5,4742.91,13204.2,4743.23C13203.8,4743.56,13203.4,4743.75,13202.9,4743.75L13196.8,4743.75L13196.8,4784.47L13193.5,4784.47L13193.5,4743.75ZM13051.9,4573.13L13058,4573.13C13058.5,4573.13,13058.9,4573.31,13059.3,4573.64C13059.6,4573.97,13059.8,4574.42,13059.8,4574.88L13059.8,4758.59C13059.8,4759.05,13059.6,4759.5,13059.3,4759.82C13058.9,4760.15,13058.5,4760.34,13058,4760.34L13051.9,4760.34L13051.9,4784.47L13048.6,4784.47L13048.6,4760.34L13042.5,4760.34C13042.1,4760.34,13041.6,4760.15,13041.3,4759.82C13041,4759.5,13040.8,4759.05,13040.8,4758.59L13040.8,4574.88C13040.8,4574.42,13041,4573.97,13041.3,4573.64C13041.6,4573.31,13042.1,4573.13,13042.5,4573.13L13048.6,4573.13L13048.6,4550.99L13051.9,4550.99L13051.9,4573.13ZM13265.9,4624.28L13265.9,4600.99L13269.2,4600.99L13269.2,4624.28L13275.3,4624.28C13275.7,4624.28,13276.2,4624.47,13276.5,4624.79C13276.8,4625.12,13277,4625.57,13277,4626.03L13277,4741.47C13277,4741.93,13276.8,4742.38,13276.5,4742.7C13276.2,4743.03,13275.7,4743.22,13275.3,4743.22L13269.2,4743.22L13269.2,4767.66L13265.9,4767.66L13265.9,4743.22L13259.8,4743.22C13259.3,4743.22,13258.9,4743.03,13258.6,4742.7C13258.2,4742.38,13258,4741.93,13258,4741.47L13258,4626.03C13258,4625.57,13258.2,4625.12,13258.6,4624.79C13258.9,4624.47,13259.3,4624.28,13259.8,4624.28L13265.9,4624.28ZM13121.1,4742.92L13115,4742.92C13114.5,4742.92,13114.1,4742.74,13113.8,4742.41C13113.4,4742.08,13113.2,4741.64,13113.2,4741.17L13113.2,4660.4C13113.2,4659.93,13113.4,4659.49,13113.8,4659.16C13114.1,4658.83,13114.5,4658.65,13115,4658.65L13130.5,4658.65C13130.9,4658.65,13131.4,4658.83,13131.7,4659.16C13132,4659.49,13132.2,4659.93,13132.2,4660.4L13132.2,4741.17C13132.2,4741.64,13132,4742.08,13131.7,4742.41C13131.4,4742.74,13130.9,4742.92,13130.5,4742.92L13124.4,4742.92L13124.4,4767.24L13121.1,4767.24L13121.1,4742.92ZM13084.7,4696.65L13078.6,4696.65C13078.2,4696.65,13077.7,4696.47,13077.4,4696.14C13077.1,4695.81,13076.9,4695.37,13076.9,4694.9L13076.9,4595.26C13076.9,4594.8,13077.1,4594.35,13077.4,4594.02C13077.7,4593.7,13078.2,4593.51,13078.6,4593.51L13094.1,4593.51C13094.6,4593.51,13095,4593.7,13095.3,4594.02C13095.7,4594.35,13095.8,4594.8,13095.8,4595.26L13095.8,4694.9C13095.8,4695.37,13095.7,4695.81,13095.3,4696.14C13095,4696.47,13094.6,4696.65,13094.1,4696.65L13088,4696.65L13088,4718.77L13084.7,4718.77L13084.7,4696.65ZM13233,4692.75L13239,4692.75C13240,4692.75,13240.8,4693.53,13240.8,4694.5L13240.8,4712.61C13240.8,4713.57,13240,4714.36,13239,4714.36L13233,4714.36L13233,4738.8L13229.7,4738.8L13229.7,4714.36L13223.6,4714.36C13222.6,4714.36,13221.8,4713.57,13221.8,4712.61L13221.8,4694.5C13221.8,4693.53,13222.6,4692.75,13223.6,4692.75L13229.7,4692.75L13229.7,4687.45L13233,4687.45L13233,4692.75ZM13157.2,4675.63L13157.2,4653.22L13160.5,4653.22L13160.5,4675.63L13166.6,4675.63C13167,4675.63,13167.5,4675.81,13167.8,4676.14C13168.1,4676.47,13168.3,4676.92,13168.3,4677.38L13168.3,4689.18C13168.3,4689.64,13168.1,4690.09,13167.8,4690.42C13167.5,4690.74,13167,4690.93,13166.6,4690.93L13160.5,4690.93L13160.5,4715.28L13157.2,4715.28L13157.2,4690.93L13151.1,4690.93C13150.6,4690.93,13150.2,4690.74,13149.9,4690.42C13149.5,4690.09,13149.4,4689.64,13149.4,4689.18L13149.4,4677.38C13149.4,4676.92,13149.5,4676.47,13149.9,4676.14C13150.2,4675.81,13150.6,4675.63,13151.1,4675.63L13157.2,4675.63ZM13338.3,4640.86L13338.3,4619.31L13341.6,4619.31L13341.6,4640.86L13347.7,4640.86C13348.2,4640.86,13348.6,4641.04,13348.9,4641.37C13349.3,4641.7,13349.4,4642.15,13349.4,4642.61L13349.4,4655.69C13349.4,4656.15,13349.3,4656.6,13348.9,4656.92C13348.6,4657.25,13348.2,4657.44,13347.7,4657.44L13341.6,4657.44L13341.6,4681.44L13338.3,4681.44L13338.3,4657.44L13332.2,4657.44C13331.8,4657.44,13331.3,4657.25,13331,4656.92C13330.6,4656.6,13330.5,4656.15,13330.5,4655.69L13330.5,4642.61C13330.5,4642.15,13330.6,4641.7,13331,4641.37C13331.3,4641.04,13331.8,4640.86,13332.2,4640.86L13338.3,4640.86ZM13305.6,4640.86L13311.7,4640.86C13312.2,4640.86,13312.6,4641.04,13312.9,4641.37C13313.3,4641.7,13313.4,4642.15,13313.4,4642.61L13313.4,4672.26C13313.4,4672.73,13313.3,4673.17,13312.9,4673.5C13312.6,4673.83,13312.2,4674.01,13311.7,4674.01L13305.6,4674.01L13305.6,4681.44L13302.3,4681.44L13302.3,4674.01L13296.2,4674.01C13295.8,4674.01,13295.3,4673.83,13295,4673.5C13294.7,4673.17,13294.5,4672.73,13294.5,4672.26L13294.5,4642.61C13294.5,4642.15,13294.7,4641.7,13295,4641.37C13295.3,4641.04,13295.8,4640.86,13296.2,4640.86L13302.3,4640.86L13302.3,4619.31L13305.6,4619.31L13305.6,4640.86ZM13378.2,4626.48L13384.3,4626.48C13385.2,4626.48,13386,4627.26,13386,4628.23L13386,4689.11C13386,4690.08,13385.2,4690.86,13384.3,4690.86L13378.2,4690.86L13378.2,4705.78L13374.9,4705.78L13374.9,4690.86L13368.8,4690.86C13367.8,4690.86,13367,4690.08,13367,4689.11L13367,4628.23C13367,4627.26,13367.8,4626.48,13368.8,4626.48L13374.9,4626.48L13374.9,4604.93L13378.2,4604.93L13378.2,4626.48ZM13410.9,4656.95L13410.9,4649.63L13414.2,4649.63L13414.2,4656.95L13420.3,4656.95C13421.2,4656.95,13422,4657.73,13422,4658.7L13422,4778.48C13422,4779.45,13421.2,4780.23,13420.3,4780.23L13414.2,4780.23L13414.2,4786.75L13410.9,4786.75L13410.9,4780.23L13404.8,4780.23C13403.8,4780.23,13403,4779.45,13403,4778.48L13403,4658.7C13403,4657.73,13403.8,4656.95,13404.8,4656.95L13410.9,4656.95ZM12685.2,4693.87L12685.2,4687.65L12688.5,4687.65L12688.5,4693.87L12694.6,4693.87C12695,4693.87,12695.5,4694.06,12695.8,4694.39C12696.2,4694.72,12696.3,4695.16,12696.3,4695.62L12696.3,4805.49C12696.3,4805.96,12696.2,4806.4,12695.8,4806.73C12695.5,4807.06,12695,4807.24,12694.6,4807.24L12688.5,4807.24L12688.5,4831.64L12685.2,4831.64L12685.2,4807.24L12679.1,4807.24C12678.6,4807.24,12678.2,4807.06,12677.9,4806.73C12677.5,4806.4,12677.4,4805.96,12677.4,4805.49L12677.4,4695.62C12677.4,4695.16,12677.5,4694.72,12677.9,4694.39C12678.2,4694.06,12678.6,4693.87,12679.1,4693.87L12685.2,4693.87ZM12471.4,4742.27L12477.5,4742.27C12477.9,4742.27,12478.4,4742.45,12478.7,4742.78C12479,4743.11,12479.2,4743.56,12479.2,4744.02L12479.2,4806.07C12479.2,4806.53,12479,4806.98,12478.7,4807.31C12478.4,4807.64,12477.9,4807.82,12477.5,4807.82L12471.4,4807.82L12471.4,4818.45L12468.1,4818.45L12468.1,4807.82L12462,4807.82C12461.5,4807.82,12461.1,4807.64,12460.7,4807.31C12460.4,4806.98,12460.2,4806.53,12460.2,4806.07L12460.2,4744.02C12460.2,4743.56,12460.4,4743.11,12460.7,4742.78C12461.1,4742.45,12461.5,4742.27,12462,4742.27L12468.1,4742.27L12468.1,4718.45L12471.4,4718.45L12471.4,4742.27ZM12431.8,4672L12431.8,4656.46L12435.1,4656.46L12435.1,4672L12441.2,4672C12442.2,4672,12443,4672.78,12443,4673.75L12443,4769.81C12443,4770.77,12442.2,4771.56,12441.2,4771.56L12435.1,4771.56L12435.1,4794.07L12431.8,4794.07L12431.8,4771.56L12425.8,4771.56C12424.8,4771.56,12424,4770.77,12424,4769.81L12424,4673.75C12424,4672.78,12424.8,4672,12425.8,4672L12431.8,4672ZM12616,4705.83L12622.1,4705.83C12622.6,4705.83,12623,4706.01,12623.4,4706.34C12623.7,4706.67,12623.9,4707.11,12623.9,4707.58L12623.9,4760.86C12623.9,4761.32,12623.7,4761.77,12623.4,4762.09C12623,4762.42,12622.6,4762.61,12622.1,4762.61L12616,4762.61L12616,4785.76L12612.7,4785.76L12612.7,4762.61L12606.6,4762.61C12606.2,4762.61,12605.7,4762.42,12605.4,4762.09C12605.1,4761.77,12604.9,4761.32,12604.9,4760.86L12604.9,4707.58C12604.9,4707.11,12605.1,4706.67,12605.4,4706.34C12605.7,4706.01,12606.2,4705.83,12606.6,4705.83L12612.7,4705.83L12612.7,4693.87L12616,4693.87L12616,4705.83ZM12507.6,4694.27L12513.7,4694.27C12514.1,4694.27,12514.6,4694.46,12514.9,4694.79C12515.2,4695.11,12515.4,4695.56,12515.4,4696.02L12515.4,4735.27C12515.4,4735.73,12515.2,4736.17,12514.9,4736.5C12514.6,4736.83,12514.1,4737.02,12513.7,4737.02L12507.6,4737.02L12507.6,4760.68L12504.3,4760.68L12504.3,4737.02L12498.2,4737.02C12497.7,4737.02,12497.3,4736.83,12497,4736.5C12496.6,4736.17,12496.5,4735.73,12496.5,4735.27L12496.5,4696.02C12496.5,4695.56,12496.6,4695.11,12497,4694.79C12497.3,4694.46,12497.7,4694.27,12498.2,4694.27L12504.3,4694.27L12504.3,4684.04L12507.6,4684.04L12507.6,4694.27ZM12649,4695.82L12649,4687.65L12652.3,4687.65L12652.3,4695.82L12658.4,4695.82C12659.3,4695.82,12660.1,4696.61,12660.1,4697.57L12660.1,4733.72C12660.1,4734.68,12659.3,4735.47,12658.4,4735.47L12652.3,4735.47L12652.3,4750.56L12649,4750.56L12649,4735.47L12642.9,4735.47C12641.9,4735.47,12641.1,4734.68,12641.1,4733.72L12641.1,4697.57C12641.1,4696.61,12641.9,4695.82,12642.9,4695.82L12649,4695.82ZM12540.5,4645.52L12540.5,4623.43L12543.8,4623.43L12543.8,4645.52L12549.9,4645.52C12550.3,4645.52,12550.8,4645.7,12551.1,4646.03C12551.4,4646.36,12551.6,4646.8,12551.6,4647.27L12551.6,4688.48C12551.6,4688.94,12551.4,4689.39,12551.1,4689.71C12550.8,4690.04,12550.3,4690.23,12549.9,4690.23L12543.8,4690.23L12543.8,4739.94L12540.5,4739.94L12540.5,4690.23L12534.4,4690.23C12533.9,4690.23,12533.5,4690.04,12533.2,4689.71C12532.8,4689.39,12532.7,4688.94,12532.7,4688.48L12532.7,4647.27C12532.7,4646.8,12532.8,4646.36,12533.2,4646.03C12533.5,4645.7,12533.9,4645.52,12534.4,4645.52L12540.5,4645.52ZM12576.9,4612.17L12576.9,4581.23L12580.2,4581.23L12580.2,4612.17L12586.2,4612.17C12587.2,4612.17,12588,4612.95,12588,4613.92L12588,4721.91C12588,4722.88,12587.2,4723.66,12586.2,4723.66L12580.2,4723.66L12580.2,4734.22L12576.9,4734.22L12576.9,4723.66L12570.8,4723.66C12569.8,4723.66,12569,4722.88,12569,4721.91L12569,4613.92C12569,4612.95,12569.8,4612.17,12570.8,4612.17L12576.9,4612.17Z" fill="url(#Gradient-1)" opacity="0" transform="translate(12923,4733.92) translate(-12923,-4733.92)" style="animation: 18s linear infinite both a3_o;"/>
            </g>
        </g>
    </g>
    <rect width="240" height="250" fill="url(#Gradient-2)" stroke="none" transform="translate(120.004,56.3335) rotate(-90) translate(-183.666,-120.004)"/>
    <rect width="240" height="250" fill="url(#Gradient-2)" stroke="none" transform="translate(379.996,183.666) rotate(90) translate(-183.666,-120.004)"/>
</svg>
